<svg width="32" height="274" viewBox="0 0 32 274" fill="none" xmlns="http://www.w3.org/2000/svg">
<path d="M22 55.6215L19.3 56.4495V61.3275L22 62.1555V64.6755L9.04 60.7155L9.04 57.0615L22 53.1015V55.6215ZM17.014 60.6435V57.1515L11.326 58.9155L17.014 60.6435ZM15.178 42.7404C15.418 42.1524 15.802 41.7024 16.33 41.3904C16.846 41.0784 17.428 40.9224 18.076 40.9224C19.276 40.9224 20.23 41.2584 20.938 41.9304C21.646 42.5904 22 43.5624 22 44.8464V50.5884H9.04V45.4044C9.04 44.5284 9.22 43.8024 9.58 43.2264C9.928 42.6384 10.378 42.2064 10.93 41.9304C11.482 41.6544 12.064 41.5164 12.676 41.5164C13.252 41.5164 13.756 41.6244 14.188 41.8404C14.62 42.0444 14.95 42.3444 15.178 42.7404ZM14.098 48.1044V45.4404C14.098 45.0084 13.984 44.6604 13.756 44.3964C13.528 44.1324 13.186 44.0004 12.73 44.0004C12.322 44.0004 11.986 44.1264 11.722 44.3784C11.458 44.6304 11.326 44.9844 11.326 45.4404V48.1044H14.098ZM19.696 45.0984C19.696 44.5944 19.54 44.1864 19.228 43.8744C18.916 43.5504 18.502 43.3884 17.986 43.3884C17.506 43.3884 17.122 43.5384 16.834 43.8384C16.534 44.1264 16.384 44.5464 16.384 45.0984V48.1044H19.696V45.0984ZM22.27 32.6655C22.27 33.9375 21.988 35.0475 21.424 35.9955C20.86 36.9435 20.074 37.6755 19.066 38.1915C18.046 38.6955 16.864 38.9475 15.52 38.9475C14.176 38.9475 13 38.6955 11.992 38.1915C10.972 37.6755 10.18 36.9435 9.616 35.9955C9.052 35.0475 8.77 33.9375 8.77 32.6655C8.77 31.3935 9.052 30.2835 9.616 29.3355C10.18 28.3875 10.972 27.6615 11.992 27.1575C13 26.6415 14.176 26.3835 15.52 26.3835C16.864 26.3835 18.046 26.6415 19.066 27.1575C20.074 27.6615 20.86 28.3875 21.424 29.3355C21.988 30.2835 22.27 31.3935 22.27 32.6655ZM19.966 32.6655C19.978 31.4655 19.588 30.5535 18.796 29.9295C18.004 29.2935 16.912 28.9755 15.52 28.9755C14.14 28.9755 13.06 29.2875 12.28 29.9115C11.488 30.5355 11.086 31.4535 11.074 32.6655C11.062 33.8655 11.452 34.7835 12.244 35.4195C13.036 36.0435 14.128 36.3555 15.52 36.3555C16.9 36.3555 17.986 36.0435 18.778 35.4195C19.558 34.7955 19.954 33.8775 19.966 32.6655ZM22.27 18.4129C22.27 19.4449 22.06 20.3629 21.64 21.1669C21.22 21.9589 20.62 22.5769 19.84 23.0209C19.06 23.4649 18.16 23.6869 17.14 23.6869H9.058L9.04 21.2029H17.122C17.674 21.2029 18.166 21.0829 18.598 20.8429C19.03 20.5909 19.366 20.2549 19.606 19.8349C19.846 19.4029 19.966 18.9289 19.966 18.4129C19.966 17.8849 19.846 17.4109 19.606 16.9909C19.366 16.5709 19.03 16.2409 18.598 16.0009C18.166 15.7489 17.674 15.6229 17.122 15.6229H9.04L9.04 13.1389H17.14C18.16 13.1389 19.06 13.3609 19.84 13.8049C20.62 14.2489 21.22 14.8729 21.64 15.6769C22.06 16.4689 22.27 17.3809 22.27 18.4129ZM11.326 6.72033V10.8063H9.04V0.186328H11.326V4.27233H22V6.72033H11.326Z" fill="#333333"/>
<path d="M12.7633 240.27C11.8153 240.27 10.9753 240.072 10.2433 239.676C9.52327 239.268 8.95927 238.704 8.55127 237.984C8.15527 237.252 7.95727 236.412 7.95727 235.464V231.576C7.95727 230.628 8.15527 229.794 8.55127 229.074C8.95927 228.342 9.52327 227.778 10.2433 227.382C10.9753 226.974 11.8153 226.77 12.7633 226.77C13.7113 226.77 14.5453 226.974 15.2653 227.382C15.9973 227.778 16.5613 228.342 16.9573 229.074C17.3653 229.794 17.5693 230.628 17.5693 231.576V235.464C17.5693 236.412 17.3653 237.252 16.9573 237.984C16.5613 238.704 15.9973 239.268 15.2653 239.676C14.5453 240.072 13.7113 240.27 12.7633 240.27ZM12.7633 237.948C13.4113 237.948 13.9573 237.726 14.4013 237.282C14.8453 236.838 15.0673 236.292 15.0673 235.644V231.378C15.0673 230.73 14.8453 230.184 14.4013 229.74C13.9573 229.296 13.4113 229.074 12.7633 229.074C12.1153 229.074 11.5693 229.296 11.1253 229.74C10.6813 230.184 10.4593 230.73 10.4593 231.378V235.644C10.4593 236.292 10.6813 236.838 11.1253 237.282C11.5693 237.726 12.1153 237.948 12.7633 237.948ZM22.3362 229.704L19.9062 231.198V228.498L22.3362 227.04H24.8382V240H22.3362V229.704Z" fill="#333333"/>
<path d="M12.4611 272.24C11.7251 272.24 11.0585 272.075 10.4611 271.744C9.87446 271.403 9.41046 270.939 9.06913 270.352C8.73846 269.755 8.57313 269.088 8.57313 268.352V264.128C8.57313 263.392 8.73846 262.731 9.06913 262.144C9.41046 261.547 9.87446 261.083 10.4611 260.752C11.0585 260.411 11.7251 260.24 12.4611 260.24C13.1971 260.24 13.8585 260.411 14.4451 260.752C15.0425 261.083 15.5065 261.547 15.8371 262.144C16.1785 262.731 16.3491 263.392 16.3491 264.128V268.352C16.3491 269.088 16.1785 269.755 15.8371 270.352C15.5065 270.939 15.0425 271.403 14.4451 271.744C13.8585 272.075 13.1971 272.24 12.4611 272.24ZM12.4611 270.864C12.9091 270.864 13.3198 270.757 13.6931 270.544C14.0665 270.32 14.3598 270.021 14.5731 269.648C14.7971 269.275 14.9091 268.869 14.9091 268.432V264.032C14.9091 263.595 14.7971 263.189 14.5731 262.816C14.3598 262.443 14.0665 262.149 13.6931 261.936C13.3198 261.712 12.9091 261.6 12.4611 261.6C12.0238 261.6 11.6185 261.712 11.2451 261.936C10.8718 262.149 10.5731 262.443 10.3491 262.816C10.1358 263.189 10.0291 263.595 10.0291 264.032V268.432C10.0291 268.869 10.1358 269.275 10.3491 269.648C10.5731 270.021 10.8718 270.32 11.2451 270.544C11.6185 270.757 12.0238 270.864 12.4611 270.864ZM23.5648 269.872H18.2688V268.528L22.0768 260.48H23.6928L19.8848 268.528H23.5648V265.28H25.0048V268.528H26.2048V269.872H25.0048V272H23.5648V269.872Z" fill="#333333"/>
<rect y="252" width="252" height="2" transform="rotate(-90 0 252)" fill="#333333"/>
<rect width="27" height="2" transform="matrix(1 0 0 -1 0 252)" fill="#333333"/>
</svg>
