<svg width="32" height="274" viewBox="0 0 32 274" fill="none" xmlns="http://www.w3.org/2000/svg">
<path d="M23.27 85.7479C23.27 87.0439 22.988 88.1629 22.424 89.1049C21.86 90.0409 21.071 90.7639 20.057 91.2739C19.043 91.7779 17.864 92.0299 16.52 92.0299C15.176 92.0299 13.997 91.7779 12.983 91.2739C11.969 90.7639 11.18 90.0409 10.616 89.1049C10.052 88.1629 9.77 87.0439 9.77 85.7479C9.77 84.2599 10.139 83.0119 10.877 82.0039C11.615 80.9899 12.614 80.2759 13.874 79.8619L14.558 82.3279C13.772 82.5679 13.163 82.9729 12.731 83.5429C12.293 84.1129 12.074 84.8479 12.074 85.7479C12.074 86.5699 12.257 87.2569 12.623 87.8089C12.989 88.3549 13.505 88.7659 14.171 89.0419C14.837 89.3179 15.62 89.4559 16.52 89.4559C17.42 89.4559 18.203 89.3179 18.869 89.0419C19.535 88.7659 20.051 88.3549 20.417 87.8089C20.783 87.2569 20.966 86.5699 20.966 85.7479C20.966 84.8479 20.747 84.1129 20.309 83.5429C19.871 82.9729 19.262 82.5679 18.482 82.3279L19.166 79.8619C20.426 80.2759 21.425 80.9899 22.163 82.0039C22.901 83.0119 23.27 84.2599 23.27 85.7479ZM23.27 71.4182C23.27 72.7142 22.988 73.8332 22.424 74.7752C21.86 75.7112 21.071 76.4342 20.057 76.9442C19.043 77.4482 17.864 77.7002 16.52 77.7002C15.176 77.7002 13.997 77.4482 12.983 76.9442C11.969 76.4342 11.18 75.7112 10.616 74.7752C10.052 73.8332 9.77 72.7142 9.77 71.4182C9.77 70.1222 10.052 69.0062 10.616 68.0702C11.18 67.1282 11.969 66.4052 12.983 65.9012C13.997 65.3912 15.176 65.1362 16.52 65.1362C17.864 65.1362 19.043 65.3912 20.057 65.9012C21.071 66.4052 21.86 67.1282 22.424 68.0702C22.988 69.0062 23.27 70.1222 23.27 71.4182ZM20.966 71.4182C20.978 70.5962 20.801 69.9122 20.435 69.3662C20.069 68.8202 19.55 68.4122 18.878 68.1422C18.206 67.8662 17.42 67.7282 16.52 67.7282C15.62 67.7282 14.84 67.8662 14.18 68.1422C13.52 68.4122 13.007 68.8202 12.641 69.3662C12.275 69.9122 12.086 70.5962 12.074 71.4182C12.062 72.2402 12.239 72.9242 12.605 73.4702C12.971 74.0162 13.49 74.4272 14.162 74.7032C14.834 74.9732 15.62 75.1082 16.52 75.1082C17.42 75.1082 18.2 74.9732 18.86 74.7032C19.52 74.4272 20.033 74.0162 20.399 73.4702C20.765 72.9242 20.954 72.2402 20.966 71.4182ZM23 62.4396H10.04V59.9556L18.68 54.3216H10.04V51.8376H23V54.3216L14.36 59.9556H23V62.4396ZM23 45.4203H12.326V49.5063H10.04L10.04 38.8863H12.326L12.326 42.9723H23V45.4203ZM23 37.7916L10.04 33.8316V30.1776L23 26.2176V28.7376L11.57 32.2656V31.7976L23 35.2716V37.7916ZM20.3 35.4156H18.014V28.5756H20.3V35.4156ZM23.27 18.494C23.27 19.79 22.988 20.909 22.424 21.851C21.86 22.787 21.071 23.51 20.057 24.02C19.043 24.524 17.864 24.776 16.52 24.776C15.176 24.776 13.997 24.524 12.983 24.02C11.969 23.51 11.18 22.787 10.616 21.851C10.052 20.909 9.77 19.79 9.77 18.494C9.77 17.006 10.139 15.758 10.877 14.75C11.615 13.736 12.614 13.022 13.874 12.608L14.558 15.074C13.772 15.314 13.163 15.719 12.731 16.289C12.293 16.859 12.074 17.594 12.074 18.494C12.074 19.316 12.257 20.003 12.623 20.555C12.989 21.101 13.505 21.512 14.171 21.788C14.837 22.064 15.62 22.202 16.52 22.202C17.42 22.202 18.203 22.064 18.869 21.788C19.535 21.512 20.051 21.101 20.417 20.555C20.783 20.003 20.966 19.316 20.966 18.494C20.966 17.594 20.747 16.859 20.309 16.289C19.871 15.719 19.262 15.314 18.482 15.074L19.166 12.608C20.426 13.022 21.425 13.736 22.163 14.75C22.901 15.758 23.27 17.006 23.27 18.494ZM23 6.72033H12.326V10.8063H10.04V0.186328H12.326V4.27233H23V6.72033Z" fill="white"/>
<path d="M9.86288 241.27C8.90288 241.27 8.06288 241.069 7.34288 240.667C6.62288 240.265 6.06188 239.704 5.65988 238.984C5.25788 238.264 5.05688 237.424 5.05688 236.464V232.576C5.05688 231.616 5.25788 230.776 5.65988 230.056C6.06188 229.336 6.62288 228.775 7.34288 228.373C8.06288 227.971 8.90288 227.77 9.86288 227.77C10.8229 227.77 11.6629 227.971 12.3829 228.373C13.1029 228.775 13.6639 229.336 14.0659 230.056C14.4679 230.776 14.6689 231.616 14.6689 232.576V236.464C14.6689 237.424 14.4679 238.264 14.0659 238.984C13.6639 239.704 13.1029 240.265 12.3829 240.667C11.6629 241.069 10.8229 241.27 9.86288 241.27ZM9.86288 238.948C10.2949 238.948 10.6849 238.846 11.0329 238.642C11.3809 238.438 11.6569 238.162 11.8609 237.814C12.0649 237.466 12.1669 237.076 12.1669 236.644V232.378C12.1669 231.946 12.0649 231.556 11.8609 231.208C11.6569 230.86 11.3809 230.584 11.0329 230.38C10.6849 230.176 10.2949 230.074 9.86288 230.074C9.43088 230.074 9.04088 230.176 8.69288 230.38C8.34488 230.584 8.06888 230.86 7.86488 231.208C7.66088 231.556 7.55888 231.946 7.55888 232.378V236.644C7.55888 237.076 7.66088 237.466 7.86488 237.814C8.06888 238.162 8.34488 238.438 8.69288 238.642C9.04088 238.846 9.43088 238.948 9.86288 238.948ZM22.4598 241V238.984H16.8258V236.698L20.9118 228.04H23.7198L19.6338 236.698H22.4598V233.458H24.9438V236.698H26.0958V238.984H24.9438V241H22.4598Z" fill="white"/>
<path d="M12.4611 273.24C11.7145 273.24 11.0478 273.072 10.4611 272.736C9.87979 272.395 9.41846 271.933 9.07713 271.352C8.74113 270.765 8.57313 270.099 8.57313 269.352V265.128C8.57313 264.381 8.74113 263.715 9.07713 263.128C9.41846 262.541 9.87979 262.08 10.4611 261.744C11.0478 261.408 11.7145 261.24 12.4611 261.24C13.2078 261.24 13.8745 261.408 14.4611 261.744C15.0478 262.08 15.5091 262.541 15.8451 263.128C16.1811 263.715 16.3491 264.381 16.3491 265.128V269.352C16.3491 270.099 16.1811 270.765 15.8451 271.352C15.5091 271.933 15.0478 272.395 14.4611 272.736C13.8745 273.072 13.2078 273.24 12.4611 273.24ZM12.4611 271.872C12.9145 271.872 13.3251 271.763 13.6931 271.544C14.0611 271.325 14.3545 271.032 14.5731 270.664C14.7918 270.291 14.9011 269.88 14.9011 269.432V265.04C14.9011 264.587 14.7918 264.176 14.5731 263.808C14.3545 263.44 14.0611 263.147 13.6931 262.928C13.3251 262.709 12.9145 262.6 12.4611 262.6C12.0131 262.6 11.6025 262.709 11.2291 262.928C10.8611 263.147 10.5678 263.44 10.3491 263.808C10.1305 264.176 10.0211 264.587 10.0211 265.04V269.432C10.0211 269.88 10.1305 270.291 10.3491 270.664C10.5678 271.032 10.8611 271.325 11.2291 271.544C11.6025 271.763 12.0131 271.872 12.4611 271.872ZM23.5648 273V270.88H18.2688V269.528L22.0688 261.48H23.6848L19.8848 269.528H23.5648V266.288H25.0048V269.528H26.2048V270.88H25.0048V273H23.5648Z" fill="white"/>
<rect y="252" width="252" height="2" transform="rotate(-90 0 252)" fill="white"/>
<rect width="27" height="2" transform="matrix(1 0 0 -1 0 252)" fill="white"/>
</svg>
