<svg width="32" height="274" viewBox="0 0 32 274" fill="none" xmlns="http://www.w3.org/2000/svg">
<path d="M9.04 100.751C9.04 100.331 9.064 99.9712 9.112 99.6712C9.28 98.5552 9.742 97.7212 10.498 97.1692C11.242 96.6052 12.184 96.3232 13.324 96.3232C14.464 96.3232 15.412 96.6052 16.168 97.1692C16.912 97.7212 17.368 98.5552 17.536 99.6712C17.584 99.9712 17.608 100.331 17.608 100.751V103.775H22V106.223H9.04V100.751ZM15.322 100.859C15.322 100.511 15.292 100.235 15.232 100.031C15.112 99.5872 14.872 99.2692 14.512 99.0772C14.152 98.8852 13.756 98.7892 13.324 98.7892C12.892 98.7892 12.496 98.8852 12.136 99.0772C11.776 99.2692 11.536 99.5872 11.416 100.031C11.356 100.247 11.326 100.523 11.326 100.859V103.775H15.322V100.859ZM22.27 88.0542C22.27 89.3262 21.988 90.4362 21.424 91.3842C20.86 92.3322 20.074 93.0642 19.066 93.5802C18.046 94.0842 16.864 94.3362 15.52 94.3362C14.176 94.3362 13 94.0842 11.992 93.5802C10.972 93.0642 10.18 92.3322 9.616 91.3842C9.052 90.4362 8.77 89.3262 8.77 88.0542C8.77 86.7822 9.052 85.6722 9.616 84.7242C10.18 83.7762 10.972 83.0502 11.992 82.5462C13 82.0302 14.176 81.7722 15.52 81.7722C16.864 81.7722 18.046 82.0302 19.066 82.5462C20.074 83.0502 20.86 83.7762 21.424 84.7242C21.988 85.6722 22.27 86.7822 22.27 88.0542ZM19.966 88.0542C19.978 86.8542 19.588 85.9422 18.796 85.3182C18.004 84.6822 16.912 84.3642 15.52 84.3642C14.14 84.3642 13.06 84.6762 12.28 85.3002C11.488 85.9242 11.086 86.8422 11.074 88.0542C11.062 89.2542 11.452 90.1722 12.244 90.8082C13.036 91.4322 14.128 91.7442 15.52 91.7442C16.9 91.7442 17.986 91.4322 18.778 90.8082C19.558 90.1842 19.954 89.2662 19.966 88.0542ZM22 71.7675L17.608 73.8915V76.6275H22V79.0755H9.04V73.6035C9.04 73.1835 9.064 72.8235 9.112 72.5235C9.28 71.4075 9.742 70.5735 10.498 70.0215C11.242 69.4575 12.184 69.1755 13.324 69.1755C14.236 69.1755 15.028 69.3555 15.7 69.7155C16.36 70.0755 16.858 70.6155 17.194 71.3355L22 68.9955V71.7675ZM15.322 76.6275V73.7115C15.322 73.3635 15.292 73.0875 15.232 72.8835C15.112 72.4395 14.872 72.1215 14.512 71.9295C14.152 71.7375 13.756 71.6415 13.324 71.6415C12.892 71.6415 12.496 71.7375 12.136 71.9295C11.776 72.1215 11.536 72.4395 11.416 72.8835C11.356 73.0995 11.326 73.3755 11.326 73.7115V76.6275H15.322ZM11.326 63.1109V67.1969H9.04V56.5769H11.326V60.6629H22V63.1109H11.326ZM9.04 54.2306V46.3106H11.488V51.7826H14.296V47.3906H16.744V51.7826H22V54.2306H9.04ZM22.27 38.2237C22.27 39.4957 21.988 40.6057 21.424 41.5537C20.86 42.5017 20.074 43.2337 19.066 43.7497C18.046 44.2537 16.864 44.5057 15.52 44.5057C14.176 44.5057 13 44.2537 11.992 43.7497C10.972 43.2337 10.18 42.5017 9.616 41.5537C9.052 40.6057 8.77 39.4957 8.77 38.2237C8.77 36.9517 9.052 35.8417 9.616 34.8937C10.18 33.9457 10.972 33.2197 11.992 32.7157C13 32.1997 14.176 31.9417 15.52 31.9417C16.864 31.9417 18.046 32.1997 19.066 32.7157C20.074 33.2197 20.86 33.9457 21.424 34.8937C21.988 35.8417 22.27 36.9517 22.27 38.2237ZM19.966 38.2237C19.978 37.0237 19.588 36.1117 18.796 35.4877C18.004 34.8517 16.912 34.5337 15.52 34.5337C14.14 34.5337 13.06 34.8457 12.28 35.4697C11.488 36.0937 11.086 37.0117 11.074 38.2237C11.062 39.4237 11.452 40.3417 12.244 40.9777C13.036 41.6017 14.128 41.9137 15.52 41.9137C16.9 41.9137 17.986 41.6017 18.778 40.9777C19.558 40.3537 19.954 39.4357 19.966 38.2237ZM9.04 29.0651V26.6171H19.714V21.0371H22V29.0651H9.04ZM9.04 18.4268V15.9788H22V18.4268H9.04ZM22.27 6.81862C22.27 8.09062 21.988 9.20062 21.424 10.1486C20.86 11.0966 20.074 11.8286 19.066 12.3446C18.046 12.8486 16.864 13.1006 15.52 13.1006C14.176 13.1006 13 12.8486 11.992 12.3446C10.972 11.8286 10.18 11.0966 9.616 10.1486C9.052 9.20062 8.77 8.09062 8.77 6.81862C8.77 5.54662 9.052 4.43662 9.616 3.48862C10.18 2.54062 10.972 1.81462 11.992 1.31062C13 0.794624 14.176 0.536624 15.52 0.536624C16.864 0.536624 18.046 0.794624 19.066 1.31062C20.074 1.81462 20.86 2.54062 21.424 3.48862C21.988 4.43662 22.27 5.54662 22.27 6.81862ZM19.966 6.81862C19.978 5.61862 19.588 4.70662 18.796 4.08262C18.004 3.44662 16.912 3.12862 15.52 3.12862C14.14 3.12862 13.06 3.44062 12.28 4.06462C11.488 4.68862 11.086 5.60662 11.074 6.81862C11.062 8.01862 11.452 8.93662 12.244 9.57262C13.036 10.1966 14.128 10.5086 15.52 10.5086C16.9 10.5086 17.986 10.1966 18.778 9.57262C19.558 8.94862 19.954 8.03062 19.966 6.81862Z" fill="white"/>
<path d="M10.0738 240.27C9.12581 240.27 8.28581 240.072 7.55381 239.676C6.83381 239.268 6.26981 238.704 5.86181 237.984C5.46581 237.252 5.26781 236.412 5.26781 235.464V231.576C5.26781 230.628 5.46581 229.794 5.86181 229.074C6.26981 228.342 6.83381 227.778 7.55381 227.382C8.28581 226.974 9.12581 226.77 10.0738 226.77C11.0218 226.77 11.8558 226.974 12.5758 227.382C13.3078 227.778 13.8718 228.342 14.2678 229.074C14.6758 229.794 14.8798 230.628 14.8798 231.576V235.464C14.8798 236.412 14.6758 237.252 14.2678 237.984C13.8718 238.704 13.3078 239.268 12.5758 239.676C11.8558 240.072 11.0218 240.27 10.0738 240.27ZM10.0738 237.948C10.7218 237.948 11.2678 237.726 11.7118 237.282C12.1558 236.838 12.3778 236.292 12.3778 235.644V231.378C12.3778 230.73 12.1558 230.184 11.7118 229.74C11.2678 229.296 10.7218 229.074 10.0738 229.074C9.42581 229.074 8.87981 229.296 8.43581 229.74C7.99181 230.184 7.76981 230.73 7.76981 231.378V235.644C7.76981 236.292 7.99181 236.838 8.43581 237.282C8.87981 237.726 9.42581 237.948 10.0738 237.948ZM20.8347 237.678H26.1087V239.982H17.0367V237.858L22.4727 233.034C23.2167 232.374 23.5887 231.738 23.5887 231.126C23.5887 230.526 23.4087 230.034 23.0487 229.65C22.6887 229.266 22.2147 229.074 21.6267 229.074C21.0147 229.074 20.5107 229.278 20.1147 229.686C19.7187 230.082 19.5327 230.556 19.5567 231.108H17.0367C17.0367 230.232 17.2287 229.47 17.6127 228.822C18.0087 228.162 18.5547 227.658 19.2507 227.31C19.9467 226.95 20.7567 226.77 21.6807 226.77C22.5207 226.77 23.2767 226.956 23.9487 227.328C24.6207 227.7 25.1487 228.222 25.5327 228.894C25.9167 229.554 26.1087 230.31 26.1087 231.162C26.1087 231.774 26.0187 232.29 25.8387 232.71C25.6707 233.13 25.4367 233.502 25.1367 233.826C24.8487 234.138 24.3807 234.576 23.7327 235.14L20.8347 237.678Z" fill="white"/>
<path d="M12.4611 272.24C11.7251 272.24 11.0585 272.075 10.4611 271.744C9.87446 271.403 9.41046 270.939 9.06913 270.352C8.73846 269.755 8.57313 269.088 8.57313 268.352V264.128C8.57313 263.392 8.73846 262.731 9.06913 262.144C9.41046 261.547 9.87446 261.083 10.4611 260.752C11.0585 260.411 11.7251 260.24 12.4611 260.24C13.1971 260.24 13.8585 260.411 14.4451 260.752C15.0425 261.083 15.5065 261.547 15.8371 262.144C16.1785 262.731 16.3491 263.392 16.3491 264.128V268.352C16.3491 269.088 16.1785 269.755 15.8371 270.352C15.5065 270.939 15.0425 271.403 14.4451 271.744C13.8585 272.075 13.1971 272.24 12.4611 272.24ZM12.4611 270.864C12.9091 270.864 13.3198 270.757 13.6931 270.544C14.0665 270.32 14.3598 270.021 14.5731 269.648C14.7971 269.275 14.9091 268.869 14.9091 268.432V264.032C14.9091 263.595 14.7971 263.189 14.5731 262.816C14.3598 262.443 14.0665 262.149 13.6931 261.936C13.3198 261.712 12.9091 261.6 12.4611 261.6C12.0238 261.6 11.6185 261.712 11.2451 261.936C10.8718 262.149 10.5731 262.443 10.3491 262.816C10.1358 263.189 10.0291 263.595 10.0291 264.032V268.432C10.0291 268.869 10.1358 269.275 10.3491 269.648C10.5731 270.021 10.8718 270.32 11.2451 270.544C11.6185 270.757 12.0238 270.864 12.4611 270.864ZM23.5648 269.872H18.2688V268.528L22.0768 260.48H23.6928L19.8848 268.528H23.5648V265.28H25.0048V268.528H26.2048V269.872H25.0048V272H23.5648V269.872Z" fill="white"/>
<rect y="252" width="252" height="2" transform="rotate(-90 0 252)" fill="white"/>
<rect width="27" height="2" transform="matrix(1 0 0 -1 0 252)" fill="white"/>
</svg>
