<svg width="32" height="274" viewBox="0 0 32 274" fill="none" xmlns="http://www.w3.org/2000/svg">
<path d="M22 69.848L17.608 71.972V74.708H22V77.156H9.04V71.684C9.04 71.264 9.064 70.904 9.112 70.604C9.28 69.488 9.742 68.654 10.498 68.102C11.242 67.538 12.184 67.256 13.324 67.256C14.236 67.256 15.028 67.436 15.7 67.796C16.36 68.156 16.858 68.696 17.194 69.416L22 67.076V69.848ZM15.322 74.708V71.792C15.322 71.444 15.292 71.168 15.232 70.964C15.112 70.52 14.872 70.202 14.512 70.01C14.152 69.818 13.756 69.722 13.324 69.722C12.892 69.722 12.496 69.818 12.136 70.01C11.776 70.202 11.536 70.52 11.416 70.964C11.356 71.18 11.326 71.456 11.326 71.792V74.708H15.322ZM9.04 64.1974L9.04 55.7374H11.326L11.326 61.7494H14.098V56.8174H16.384V61.7494H19.714V55.7374H22L22 64.1974H9.04ZM22.27 47.7842C22.27 48.7442 22.102 49.6142 21.766 50.3942C21.418 51.1622 20.926 51.7922 20.29 52.2842C19.654 52.7762 18.904 53.0882 18.04 53.2202L17.662 50.6642C18.394 50.4842 18.964 50.1182 19.372 49.5662C19.78 49.0142 19.984 48.3662 19.984 47.6222C19.984 46.9742 19.84 46.4042 19.552 45.9122C19.252 45.4082 18.844 45.1562 18.328 45.1562C18.04 45.1562 17.788 45.2522 17.572 45.4442C17.356 45.6242 17.176 45.9482 17.032 46.4162L16.042 49.7822C15.814 50.5862 15.46 51.2762 14.98 51.8522C14.5 52.4282 13.726 52.7162 12.658 52.7162C11.818 52.7162 11.11 52.5062 10.534 52.0862C9.946 51.6542 9.508 51.0722 9.22 50.3402C8.92 49.6082 8.776 48.7862 8.788 47.8742C8.812 46.5302 9.148 45.4082 9.796 44.5082C10.444 43.6082 11.374 43.0022 12.586 42.6902L13.036 45.3362C12.412 45.4802 11.932 45.8042 11.596 46.3082C11.248 46.8002 11.074 47.3702 11.074 48.0182C11.074 48.5942 11.212 49.0922 11.488 49.5122C11.752 49.9322 12.1 50.1422 12.532 50.1422C12.916 50.1422 13.21 49.9862 13.414 49.6742C13.618 49.3622 13.786 48.9422 13.918 48.4142L14.53 46.1642C14.71 45.5162 14.914 44.9462 15.142 44.4542C15.37 43.9622 15.73 43.5302 16.222 43.1582C16.702 42.7742 17.344 42.5822 18.148 42.5822C19.036 42.5822 19.792 42.8282 20.416 43.3202C21.04 43.8002 21.508 44.4362 21.82 45.2282C22.12 46.0202 22.27 46.8722 22.27 47.7842ZM22.27 34.4301C22.27 35.4621 22.06 36.3801 21.64 37.1841C21.22 37.9761 20.62 38.5941 19.84 39.0381C19.06 39.4821 18.16 39.7041 17.14 39.7041H9.058L9.04 37.2201H17.122C17.674 37.2201 18.166 37.1001 18.598 36.8601C19.03 36.6081 19.366 36.2721 19.606 35.8521C19.846 35.4201 19.966 34.9461 19.966 34.4301C19.966 33.9021 19.846 33.4281 19.606 33.0081C19.366 32.5881 19.03 32.2581 18.598 32.0181C18.166 31.7661 17.674 31.6401 17.122 31.6401H9.04V29.1561H17.14C18.16 29.1561 19.06 29.3781 19.84 29.8221C20.62 30.2661 21.22 30.8901 21.64 31.6941C22.06 32.4861 22.27 33.3981 22.27 34.4301ZM9.04 25.7435V23.5475L17.644 19.2635L9.04 14.9795V12.7835H22V15.0695H14.26L22 18.8315V19.6955L14.26 23.4575H22V25.7435H9.04ZM9.04 9.35719V0.897187H11.326V6.90919H14.098V1.97719H16.384L16.384 6.90919H19.714L19.714 0.897187H22L22 9.35719H9.04Z" fill="white"/>
<path d="M10.3023 240.27C9.35433 240.27 8.51433 240.072 7.78233 239.676C7.06233 239.268 6.49833 238.704 6.09033 237.984C5.69433 237.252 5.49633 236.412 5.49633 235.464V231.576C5.49633 230.628 5.69433 229.794 6.09033 229.074C6.49833 228.342 7.06233 227.778 7.78233 227.382C8.51433 226.974 9.35433 226.77 10.3023 226.77C11.2503 226.77 12.0843 226.974 12.8043 227.382C13.5363 227.778 14.1003 228.342 14.4963 229.074C14.9043 229.794 15.1083 230.628 15.1083 231.576V235.464C15.1083 236.412 14.9043 237.252 14.4963 237.984C14.1003 238.704 13.5363 239.268 12.8043 239.676C12.0843 240.072 11.2503 240.27 10.3023 240.27ZM10.3023 237.948C10.9503 237.948 11.4963 237.726 11.9403 237.282C12.3843 236.838 12.6063 236.292 12.6063 235.644V231.378C12.6063 230.73 12.3843 230.184 11.9403 229.74C11.4963 229.296 10.9503 229.074 10.3023 229.074C9.65433 229.074 9.10833 229.296 8.66433 229.74C8.22033 230.184 7.99833 230.73 7.99833 231.378V235.644C7.99833 236.292 8.22033 236.838 8.66433 237.282C9.10833 237.726 9.65433 237.948 10.3023 237.948ZM23.0612 231.882C23.9612 232.158 24.6632 232.668 25.1672 233.412C25.6712 234.144 25.9232 234.978 25.9232 235.914C25.9232 236.718 25.7192 237.45 25.3112 238.11C24.9032 238.77 24.3512 239.292 23.6552 239.676C22.9592 240.048 22.2092 240.234 21.4052 240.234C20.4212 240.234 19.5212 239.946 18.7052 239.37C17.9012 238.782 17.3612 238.014 17.0852 237.066L19.4612 236.436C19.5812 236.904 19.8212 237.27 20.1812 237.534C20.5532 237.798 20.9612 237.93 21.4052 237.93C21.9692 237.93 22.4492 237.732 22.8452 237.336C23.2412 236.94 23.4392 236.466 23.4392 235.914C23.4392 235.35 23.2472 234.87 22.8632 234.474C22.4792 234.078 21.9932 233.88 21.4052 233.88C21.0572 233.88 20.7212 233.976 20.3972 234.168L19.2992 232.242L22.7912 229.344H17.5892V227.04H25.6892V229.344L23.0612 231.882Z" fill="white"/>
<path d="M12.4611 272.24C11.7251 272.24 11.0585 272.075 10.4611 271.744C9.87446 271.403 9.41046 270.939 9.06913 270.352C8.73846 269.755 8.57313 269.088 8.57313 268.352V264.128C8.57313 263.392 8.73846 262.731 9.06913 262.144C9.41046 261.547 9.87446 261.083 10.4611 260.752C11.0585 260.411 11.7251 260.24 12.4611 260.24C13.1971 260.24 13.8585 260.411 14.4451 260.752C15.0425 261.083 15.5065 261.547 15.8371 262.144C16.1785 262.731 16.3491 263.392 16.3491 264.128V268.352C16.3491 269.088 16.1785 269.755 15.8371 270.352C15.5065 270.939 15.0425 271.403 14.4451 271.744C13.8585 272.075 13.1971 272.24 12.4611 272.24ZM12.4611 270.864C12.9091 270.864 13.3198 270.757 13.6931 270.544C14.0665 270.32 14.3598 270.021 14.5731 269.648C14.7971 269.275 14.9091 268.869 14.9091 268.432V264.032C14.9091 263.595 14.7971 263.189 14.5731 262.816C14.3598 262.443 14.0665 262.149 13.6931 261.936C13.3198 261.712 12.9091 261.6 12.4611 261.6C12.0238 261.6 11.6185 261.712 11.2451 261.936C10.8718 262.149 10.5731 262.443 10.3491 262.816C10.1358 263.189 10.0291 263.595 10.0291 264.032V268.432C10.0291 268.869 10.1358 269.275 10.3491 269.648C10.5731 270.021 10.8718 270.32 11.2451 270.544C11.6185 270.757 12.0238 270.864 12.4611 270.864ZM23.5648 269.872H18.2688V268.528L22.0768 260.48H23.6928L19.8848 268.528H23.5648V265.28H25.0048V268.528H26.2048V269.872H25.0048V272H23.5648V269.872Z" fill="white"/>
<rect y="252" width="252" height="2" transform="rotate(-90 0 252)" fill="white"/>
<rect width="27" height="2" transform="matrix(1 0 0 -1 0 252)" fill="white"/>
</svg>
