<svg width="49" height="20" viewBox="0 0 49 20" fill="none" xmlns="http://www.w3.org/2000/svg">
<path d="M13.6164 0.510205V19.4898H9.15369L8.97619 18.0867C8.01265 19.3622 6.73637 20 5.14736 20C3.44003 20 2.1553 19.3452 1.29318 18.0357C0.43106 16.7262 0 14.915 0 12.602C0 11.2075 0.23666 9.96599 0.709981 8.87755C1.1833 7.77211 1.84257 6.91327 2.68779 6.30102C3.54991 5.67177 4.53881 5.35714 5.65449 5.35714C6.82089 5.35714 7.80134 5.71429 8.59585 6.42857V0L13.6164 0.510205ZM6.84625 16.3776C7.55623 16.3776 8.13943 15.9779 8.59585 15.1786V9.71939C8.35919 9.46429 8.12252 9.27721 7.88586 9.15816C7.6492 9.02211 7.38719 8.95408 7.09981 8.95408C6.50816 8.95408 6.03484 9.2517 5.67985 9.84694C5.32486 10.4252 5.14736 11.3605 5.14736 12.6531C5.14736 14.1497 5.29105 15.1446 5.57842 15.6378C5.8827 16.131 6.30531 16.3776 6.84625 16.3776Z" fill="black"/>
<path d="M22.075 5.35714C24.2387 5.35714 25.9376 5.9949 27.1716 7.27041C28.4226 8.54592 29.048 10.3571 29.048 12.7041C29.048 14.1667 28.7606 15.4507 28.1859 16.5561C27.6281 17.6616 26.8251 18.5119 25.777 19.1071C24.729 19.7024 23.495 20 22.075 20C19.9112 20 18.2039 19.3622 16.953 18.0867C15.719 16.8112 15.102 15 15.102 12.6531C15.102 11.1905 15.3809 9.90646 15.9387 8.80102C16.5135 7.69558 17.3249 6.84524 18.3729 6.25C19.421 5.65476 20.655 5.35714 22.075 5.35714ZM22.075 8.97959C21.4326 8.97959 20.9678 9.26871 20.6804 9.84694C20.393 10.4252 20.2493 11.3605 20.2493 12.6531C20.2493 13.9966 20.393 14.9575 20.6804 15.5357C20.9678 16.0969 21.4326 16.3776 22.075 16.3776C22.7174 16.3776 23.1822 16.0884 23.4696 15.5102C23.757 14.932 23.9007 13.9966 23.9007 12.7041C23.9007 11.3605 23.757 10.4082 23.4696 9.84694C23.1822 9.26871 22.7174 8.97959 22.075 8.97959Z" fill="black"/>
<path d="M43.298 12.5C43.298 12.9252 43.2642 13.4609 43.1965 14.1071H34.981C35.1163 15.0255 35.3952 15.6463 35.8178 15.9694C36.2573 16.2755 36.8828 16.4286 37.6942 16.4286C38.1675 16.4286 38.6493 16.335 39.1395 16.148C39.6297 15.9439 40.1707 15.6378 40.7623 15.2296L42.7908 17.9847C41.1511 19.3282 39.2916 20 37.2124 20C34.812 20 32.9948 19.3367 31.7608 18.0102C30.5268 16.6667 29.9097 14.898 29.9097 12.7041C29.9097 11.3435 30.1633 10.1105 30.6704 9.0051C31.1945 7.88265 31.9636 6.9983 32.9779 6.35204C33.9921 5.68878 35.2177 5.35714 36.6546 5.35714C37.99 5.35714 39.1564 5.63776 40.1538 6.19898C41.1511 6.7602 41.9203 7.57653 42.4612 8.64796C43.019 9.71939 43.298 11.0034 43.298 12.5ZM38.3535 11.0714C38.3365 10.2721 38.2098 9.65136 37.9731 9.20918C37.7533 8.76701 37.3476 8.54592 36.756 8.54592C36.1982 8.54592 35.7755 8.7415 35.4882 9.13265C35.2177 9.52381 35.0402 10.2296 34.9557 11.25H38.3535V11.0714Z" fill="black"/>
<path d="M46.3883 14.7449C47.1152 14.7449 47.7322 15.0085 48.2393 15.5357C48.7464 16.0459 49 16.6582 49 17.3724C49 18.0867 48.7464 18.7075 48.2393 19.2347C47.7322 19.7449 47.1152 20 46.3883 20C45.6614 20 45.0444 19.7449 44.5373 19.2347C44.0301 18.7075 43.7766 18.0867 43.7766 17.3724C43.7766 16.6582 44.0301 16.0459 44.5373 15.5357C45.0444 15.0085 45.6614 14.7449 46.3883 14.7449Z" fill="black"/>
</svg>
