<svg width="32" height="32" viewBox="0 0 32 32" fill="none" xmlns="http://www.w3.org/2000/svg">
<path d="M24 15.2596C24.2452 15.6298 24.4904 16 24.6154 16.6154H20.6779C20.6779 16.4904 20.6779 16.2452 20.7981 16C20.9231 15.7548 20.9231 15.6298 21.1683 15.3846C21.2933 15.1394 21.5385 15.0144 21.7837 14.8942C22.0288 14.7692 22.399 14.6442 22.7692 14.6442C23.2596 14.7692 23.7548 14.8942 24 15.2596ZM12.6779 14.399C12.9231 14.1538 13.1683 13.7837 13.1683 13.2933C13.1683 13.0481 13.1683 12.7981 13.0481 12.5529C12.9231 12.4327 12.7981 12.1827 12.6779 12.1827C12.5529 12.0625 12.3077 12.0625 12.0625 11.9375C11.8173 11.9375 11.5673 11.9375 11.3221 11.9375H8.86058V14.7692H11.5673C11.9375 14.7692 12.3077 14.6442 12.6779 14.399ZM11.6923 16.4904H8.86058V19.8173H11.6923C11.9375 19.8173 12.1827 19.8173 12.4327 19.6923C12.6779 19.6923 12.9231 19.5673 13.0481 19.4471C13.1683 19.3221 13.4135 19.2019 13.5385 18.9519C13.6635 18.7067 13.6635 18.4615 13.6635 18.2163C13.6635 17.601 13.5385 17.1058 13.1683 16.8606C12.7981 16.6154 12.3077 16.4904 11.6923 16.4904ZM32 6.02885V25.9712C32 29.2933 29.2933 32 25.9712 32H6.02885C2.70673 32 0 29.2933 0 25.9712V6.02885C0 2.70673 2.70673 0 6.02885 0H25.9712C29.2933 0 32 2.70673 32 6.02885ZM20.1827 11.8173H25.1058V10.5865H20.1827V11.8173ZM16.2452 18.4615C16.2452 17.7212 16.125 17.1058 15.7548 16.4904C15.3846 16 14.8942 15.6298 14.1538 15.3846C14.6442 15.1394 15.1394 14.7692 15.3846 14.399C15.6298 14.0288 15.7548 13.5385 15.7548 12.9231C15.7548 12.3077 15.6298 11.9375 15.5096 11.4471C15.2596 11.0769 15.0144 10.7067 14.7692 10.5865C14.399 10.3365 14.0288 10.2163 13.5385 10.0913C12.9231 9.84615 12.4327 9.84615 11.8173 9.84615H6.15385V21.9087H12.0625C12.5529 21.9087 13.1683 21.7837 13.6635 21.6635C14.1538 21.5385 14.6442 21.2933 15.0144 21.0481C15.3846 20.7981 15.7548 20.4327 16 19.9375C16.125 19.5673 16.2452 19.0769 16.2452 18.4615ZM20.6779 18.0913H26.9519C26.9519 17.3558 26.9519 16.7404 26.8317 16.125C26.7067 15.5096 26.4615 14.8942 26.0913 14.524C25.7212 14.0288 25.2308 13.6635 24.7404 13.4135C24.125 13.1683 23.5096 12.9231 22.7692 12.9231C22.1538 12.9231 21.5385 13.0481 20.9231 13.2933C20.4327 13.5385 19.9375 13.9087 19.4471 14.2788C19.0769 14.6442 18.7067 15.1394 18.5865 15.7548C18.3365 16.3702 18.2163 16.9856 18.2163 17.601C18.2163 18.2163 18.3365 18.9519 18.5865 19.4471C18.8317 20.0625 19.0769 20.5529 19.4471 20.9231C19.8173 21.2933 20.3077 21.6635 20.7981 21.9087C21.4135 22.1538 22.0288 22.2788 22.6442 22.2788C23.6298 22.2788 24.4904 22.0288 25.2308 21.5385C25.9712 21.0481 26.4615 20.3077 26.8317 19.3221H24.7404C24.6154 19.5673 24.4904 19.8173 24.125 20.0625C23.7548 20.3077 23.3846 20.4327 22.8942 20.4327C22.2788 20.4327 21.6635 20.3077 21.2933 19.9375C20.9231 19.4471 20.6779 18.8317 20.6779 18.0913Z" fill="#333333"/>
</svg>
