<svg width="26" height="26" viewBox="0 0 26 26" fill="none" xmlns="http://www.w3.org/2000/svg">
<path d="M7.63077 0.200012C3.53846 0.200012 0.199997 3.53847 0.199997 7.63078V18.3692C0.199997 22.4615 3.53846 25.8 7.63077 25.8H18.3692C22.4615 25.8 25.8 22.4615 25.8 18.3692V7.63078C25.8 3.53847 22.4615 0.200012 18.3692 0.200012H7.63077ZM7.63077 2.16924H18.3692C21.3962 2.16924 23.8308 4.60001 23.8308 7.63078V18.3692C23.8308 21.3962 21.4 23.8308 18.3692 23.8308H7.63077C4.60384 23.8308 2.16923 21.4 2.16923 18.3692V7.63078C2.16923 4.60386 4.6 2.16924 7.63077 2.16924ZM20.3846 4.13847C19.5692 4.13847 18.9077 4.80001 18.9077 5.6154C18.9077 6.43078 19.5692 7.09232 20.3846 7.09232C21.2 7.09232 21.8615 6.43078 21.8615 5.6154C21.8615 4.80001 21.2 4.13847 20.3846 4.13847ZM13 6.1077C9.20384 6.1077 6.10769 9.20386 6.10769 13C6.10769 16.7962 9.20384 19.8923 13 19.8923C16.7962 19.8923 19.8923 16.7962 19.8923 13C19.8923 9.20386 16.7962 6.1077 13 6.1077ZM13 8.07694C15.7308 8.07694 17.9231 10.2692 17.9231 13C17.9231 15.7308 15.7308 17.9231 13 17.9231C10.2692 17.9231 8.07692 15.7308 8.07692 13C8.07692 10.2692 10.2692 8.07694 13 8.07694Z" fill="#333333"/>
</svg>
