<svg width="26" height="21" viewBox="0 0 26 21" fill="none" xmlns="http://www.w3.org/2000/svg">
<path d="M25.6577 2.68849C24.7308 3.10003 23.7346 3.37695 22.6885 3.50387C23.7538 2.86157 24.5769 1.85003 24.9615 0.642335C23.9615 1.23464 22.8538 1.66541 21.6769 1.89618C20.7346 0.892334 19.3923 0.265411 17.9038 0.265411C15.05 0.265411 12.7346 2.5808 12.7346 5.43464C12.7346 5.83849 12.7808 6.23464 12.8692 6.61156C8.57307 6.39618 4.76538 4.33464 2.21538 1.20772C1.76923 1.9731 1.51538 2.86157 1.51538 3.81157C1.51538 5.60387 2.42692 7.18464 3.81538 8.11156C2.96538 8.08464 2.16922 7.85387 1.47307 7.46541C1.47307 7.48849 1.47307 7.50772 1.47307 7.5308C1.47307 10.0346 3.25384 12.1231 5.61922 12.6C5.18461 12.7193 4.73076 12.7808 4.25769 12.7808C3.92307 12.7808 3.59999 12.75 3.28461 12.6885C3.9423 14.7385 5.84999 16.2385 8.11153 16.2769C6.34615 17.6654 4.11538 18.4885 1.6923 18.4885C1.27307 18.4885 0.865379 18.4654 0.461533 18.4193C2.74615 19.8846 5.46538 20.7385 8.38461 20.7385C17.8923 20.7385 23.0923 12.8616 23.0923 6.03464C23.0923 5.80772 23.0885 5.58464 23.0769 5.36157C24.0885 4.63849 24.9654 3.72695 25.6577 2.68849Z" fill="#333333"/>
</svg>
